<svg width="502" height="449" viewBox="0 0 502 449" fill="none" xmlns="http://www.w3.org/2000/svg">
<path d="M176.346 431.63C178.412 431.759 179.553 429.193 177.99 427.697L177.835 427.078C177.855 427.029 177.876 426.979 177.897 426.93C179.986 421.948 187.067 421.983 189.138 426.972C190.977 431.4 193.318 435.836 193.894 440.518C194.152 442.585 194.036 444.69 193.577 446.718C197.885 437.308 200.153 427.032 200.153 416.697C200.153 414.101 200.01 411.504 199.72 408.914C199.481 406.796 199.151 404.69 198.725 402.604C196.419 391.327 191.427 380.586 184.225 371.615C180.763 369.722 177.876 366.764 176.132 363.218C175.506 361.939 175.015 360.563 174.782 359.162C175.176 359.214 176.268 353.213 175.971 352.845C176.52 352.012 177.502 351.598 178.102 350.785C181.084 346.741 185.193 347.447 187.338 352.942C191.92 355.255 191.965 359.09 189.153 362.779C187.364 365.126 187.119 368.301 185.549 370.814C185.711 371.02 185.878 371.221 186.04 371.427C189.001 375.225 191.562 379.307 193.721 383.596C193.111 378.83 194.012 373.088 195.547 369.386C197.296 365.169 200.572 361.617 203.458 357.971C206.924 353.592 214.031 355.503 214.642 361.055C214.648 361.108 214.654 361.162 214.659 361.216C214.231 361.458 213.811 361.714 213.401 361.986C211.061 363.533 211.87 367.16 214.642 367.587L214.704 367.597C214.549 369.141 214.285 370.671 213.897 372.176C217.599 386.492 209.607 391.706 198.196 391.941C197.944 392.07 197.698 392.199 197.446 392.322C198.602 395.577 199.526 398.916 200.211 402.301C200.824 405.291 201.251 408.314 201.49 411.349C201.787 415.179 201.761 419.029 201.438 422.853L201.457 422.717C202.277 418.506 204.564 414.572 207.884 411.847C212.829 407.784 219.817 406.288 225.152 403.023C227.72 401.451 231.012 403.482 230.563 406.46L230.542 406.602C229.747 406.925 228.972 407.3 228.223 407.72C227.794 407.961 227.374 408.218 226.964 408.489C224.625 410.037 225.433 413.663 228.205 414.091L228.268 414.101C228.313 414.107 228.352 414.114 228.397 414.12C227.034 417.356 225.135 420.36 222.759 422.95C220.444 435.447 210.503 436.632 199.868 432.993H199.862C198.699 438.057 197.001 443.004 194.818 447.719H176.797C176.733 447.519 176.675 447.312 176.616 447.112C178.283 447.216 179.962 447.119 181.603 446.815C180.266 445.175 178.929 443.521 177.592 441.881C177.559 441.848 177.534 441.816 177.508 441.784C176.83 440.944 176.145 440.111 175.467 439.271L175.466 439.27C175.424 436.693 175.734 434.123 176.346 431.63Z" fill="#F2F2F2"/>
<path d="M481.743 449H275.192C264.316 449 255.468 440.151 255.468 429.275V19.7246C255.468 8.84863 264.316 0 275.192 0H481.743C492.619 0 501.468 8.84863 501.468 19.7246V429.275C501.468 440.151 492.619 449 481.743 449ZM275.192 2C265.403 2 257.468 9.93536 257.468 19.7241V429.275C257.468 439.064 265.403 447 275.192 447H481.743C491.532 447 499.468 439.064 499.468 429.275V150.705C499.468 68.5774 432.89 2 350.763 2H275.192Z" fill="#E6E6E6"/>
<path d="M314.134 202.118C327.389 202.118 338.134 191.373 338.134 178.118C338.134 164.863 327.389 154.118 314.134 154.118C300.879 154.118 290.134 164.863 290.134 178.118C290.134 191.373 300.879 202.118 314.134 202.118Z" fill="#E6E6E6"/>
<path d="M442.801 202.118C456.056 202.118 466.801 191.373 466.801 178.118C466.801 164.863 456.056 154.118 442.801 154.118C429.546 154.118 418.801 164.863 418.801 178.118C418.801 191.373 429.546 202.118 442.801 202.118Z" fill="#E6E6E6"/>
<path d="M378.467 202.118C391.722 202.118 402.467 191.373 402.467 178.118C402.467 164.863 391.722 154.118 378.467 154.118C365.213 154.118 354.467 164.863 354.467 178.118C354.467 191.373 365.213 202.118 378.467 202.118Z" fill="#E6E6E6"/>
<path d="M314.134 271.118C327.389 271.118 338.134 260.373 338.134 247.118C338.134 233.863 327.389 223.118 314.134 223.118C300.879 223.118 290.134 233.863 290.134 247.118C290.134 260.373 300.879 271.118 314.134 271.118Z" fill="#E6E6E6"/>
<path d="M442.801 271.118C456.056 271.118 466.801 260.373 466.801 247.118C466.801 233.863 456.056 223.118 442.801 223.118C429.546 223.118 418.801 233.863 418.801 247.118C418.801 260.373 429.546 271.118 442.801 271.118Z" fill="#E6E6E6"/>
<path d="M378.467 271.118C391.722 271.118 402.467 260.373 402.467 247.118C402.467 233.863 391.722 223.118 378.467 223.118C365.213 223.118 354.467 233.863 354.467 247.118C354.467 260.373 365.213 271.118 378.467 271.118Z" fill="#E6E6E6"/>
<path d="M314.134 340.118C327.389 340.118 338.134 329.373 338.134 316.118C338.134 302.863 327.389 292.118 314.134 292.118C300.879 292.118 290.134 302.863 290.134 316.118C290.134 329.373 300.879 340.118 314.134 340.118Z" fill="#E6E6E6"/>
<path d="M442.31 409C455.565 409 466.31 398.255 466.31 385C466.31 371.745 455.565 361 442.31 361C429.055 361 418.31 371.745 418.31 385C418.31 398.255 429.055 409 442.31 409Z" fill="#E6E6E6"/>
<path d="M346.81 409C378.014 409 403.31 398.255 403.31 385C403.31 371.745 378.014 361 346.81 361C315.606 361 290.31 371.745 290.31 385C290.31 398.255 315.606 409 346.81 409Z" fill="#E6E6E6"/>
<path d="M442.801 340.118C456.056 340.118 466.801 329.373 466.801 316.118C466.801 302.863 456.056 292.118 442.801 292.118C429.546 292.118 418.801 302.863 418.801 316.118C418.801 329.373 429.546 340.118 442.801 340.118Z" fill="#E6E6E6"/>
<path d="M378.467 340.118C391.722 340.118 402.467 329.373 402.467 316.118C402.467 302.863 391.722 292.118 378.467 292.118C365.213 292.118 354.467 302.863 354.467 316.118C354.467 329.373 365.213 340.118 378.467 340.118Z" fill="#6C63FF"/>
<path d="M383.184 28H153.65C146.844 28 141.31 33.5343 141.31 40.3403V124.66C141.31 131.466 146.844 137 153.65 137H383.184C389.99 137 395.524 131.466 395.524 124.66V40.3403C395.524 33.5343 389.99 28 383.184 28Z" fill="white"/>
<path d="M383.184 28H153.65C146.844 28 141.31 33.5343 141.31 40.3403V124.66C141.31 131.466 146.844 137 153.65 137H383.184C389.99 137 395.524 131.466 395.524 124.66V40.3403C395.524 33.5343 389.99 28 383.184 28ZM394.227 124.66C394.227 130.752 389.276 135.702 383.184 135.702H153.65C147.558 135.702 142.608 130.752 142.608 124.66V40.3403C142.608 34.248 147.558 29.2976 153.65 29.2976H383.184C389.276 29.2976 394.227 34.248 394.227 40.3403V124.66Z" fill="#3F3D56"/>
<path d="M370.417 79H166.417C164.484 79 162.917 80.567 162.917 82.5C162.917 84.433 164.484 86 166.417 86H370.417C372.35 86 373.917 84.433 373.917 82.5C373.917 80.567 372.35 79 370.417 79Z" fill="#6C63FF"/>
<path d="M4.95214 180.421L2.90768 192.596L21.0383 236.7L30.766 231.699L21.298 190.427L19.9372 174.676L4.95214 180.421Z" fill="#A0616A"/>
<path d="M24.9661 111.929C24.9661 111.929 15.4735 107.33 8.10752 122.867C0.741561 138.405 1.65371 172.482 1.65371 172.482C1.65371 172.482 -1.02841 175.036 0.674209 176.824C2.37683 178.612 3.96414 181.45 2.22728 184.721C1.31188 186.445 -0.806697 189.817 2.66264 190.775C6.13198 191.734 22.3605 187.207 22.3605 187.207C22.3605 187.207 28.4289 184.489 24.9809 182.658C21.533 180.827 26.389 169.753 26.389 169.753L30.4015 137.761L24.9661 111.929Z" fill="#6C63FF"/>
<path d="M32.4196 253.55C36.2298 252.38 37.7211 246.23 35.7505 239.812C33.7799 233.395 29.0937 229.142 25.2835 230.312C21.4733 231.482 19.982 237.632 21.9526 244.049C23.9232 250.467 28.6094 254.72 32.4196 253.55Z" fill="#A0616A"/>
<path d="M122.278 442.57L131.364 440.131L126.282 403.923L112.872 407.522L122.278 442.57Z" fill="#A0616A"/>
<path d="M153.354 434.01C153.765 434.411 154.327 435.909 154.475 436.463C154.932 438.166 153.922 439.917 152.219 440.374L124.079 447.925C122.917 448.237 121.722 447.548 121.411 446.386L121.096 445.214C121.096 445.214 118.759 442.067 120.461 436.958C120.461 436.958 124.935 439.4 128.829 432.649L129.636 429.385L143.227 434.645L149.733 433.731C151.156 433.531 152.325 433.007 153.354 434.01Z" fill="#2F2E41"/>
<path d="M33.2113 442.361L42.6192 442.36L47.0946 406.072L33.2094 406.073L33.2113 442.361Z" fill="#A0616A"/>
<path d="M65.444 442.148C65.7369 442.641 65.8915 444.233 65.8915 444.807C65.8915 446.57 64.4619 448 62.6984 448H33.5632C32.3601 448 31.3849 447.025 31.3849 445.822V444.609C31.3849 444.609 29.9436 440.963 32.911 436.47C32.911 436.47 36.599 439.988 42.1099 434.477L43.735 431.533L55.4986 440.136L62.0189 440.939C63.4454 441.115 64.7102 440.912 65.444 442.148Z" fill="#2F2E41"/>
<path d="M95.8227 226.205L120.561 332.837L132.504 418.996L113.737 421.555L61.7004 274.829L49.7576 421.555L28.4312 423.261C28.4312 423.261 11.37 249.238 19.0476 227.911L95.8227 226.205Z" fill="#2F2E41"/>
<path d="M125.269 100.115L133.805 91.1957L143.607 44.529L132.751 43.1957L117.377 82.6504L109.647 96.4413L125.269 100.115Z" fill="#A0616A"/>
<path d="M70.21 145.505C70.21 145.505 78.1984 160.235 93.0253 151.527C107.852 142.819 123.533 108.535 123.533 108.535C123.533 108.535 126.664 99.8198 129.94 98.0912C131.666 97.1801 136.108 96.1976 133.778 93.4547C131.447 90.7118 114.688 84.7153 114.688 84.7153C114.688 84.7153 108.141 83.5518 109.963 87.0043C111.785 90.4569 105.801 88.3181 106.405 91.9721C107.009 95.626 101.543 96.8853 101.543 96.8853L70.21 145.505Z" fill="#6C63FF"/>
<path d="M146.983 37.9369C148.961 31.5221 147.477 25.3697 143.668 24.1952C139.86 23.0206 135.168 27.2687 133.19 33.6835C131.212 40.0983 132.696 46.2507 136.505 47.4252C140.313 48.5998 145.005 44.3517 146.983 37.9369Z" fill="#A0616A"/>
<path d="M71.2706 94.4735H47.9142L46.9691 101.838C46.9691 101.838 17.5127 109.938 18.2491 114.357C18.9855 118.775 23.404 192.416 23.404 192.416L19.7219 229.236C19.7219 229.236 85.9988 257.22 96.3085 224.082L91.1536 185.788C91.1536 185.788 103.673 120.248 100.727 117.302C97.7813 114.357 73.4798 102.574 73.4798 102.574L71.2706 94.4735Z" fill="#6C63FF"/>
<path d="M57.7037 94.5653C69.2818 94.5653 78.6677 85.1794 78.6677 73.6013C78.6677 62.0232 69.2818 52.6373 57.7037 52.6373C46.1256 52.6373 36.7397 62.0232 36.7397 73.6013C36.7397 85.1794 46.1256 94.5653 57.7037 94.5653Z" fill="#A0616A"/>
<path d="M73.2294 64.9778C75.908 64.7513 78.5865 64.5249 81.265 64.2985C80.3443 63.8762 79.3854 63.4242 78.7719 62.6181C78.1585 61.8121 78.0317 60.5384 78.7727 59.8478C79.6386 59.0408 81.0727 59.4684 82.0191 60.1793C81.498 57.4584 79.8741 54.9653 77.5957 53.3892C74.8126 51.4639 67.9276 53.7597 64.5724 53.3177C60.7011 52.8077 60.218 49.5071 56.3467 48.9971C54.8876 48.805 53.2455 48.66 52.0981 49.5818C50.8255 50.6041 50.6827 52.537 49.5599 53.7218C47.9568 55.4136 45.2092 54.9145 42.9278 55.3904C39.6965 56.0647 37.2607 58.8981 36.1357 62.0014C35.0107 65.1047 34.9693 68.48 34.9405 71.7809C34.9084 75.4802 34.8968 79.7627 37.5724 82.3177C39.2023 83.8743 43.6426 89.2148 44.1225 91.4171C44.4634 92.9811 58.3562 94.886 61.3674 94.7994L71.6303 91.4171C72.6389 86.9757 70.9704 78.1897 68.5724 74.3177C69.3621 75.3608 73.0141 78.5009 73.5724 77.3177C74.1307 76.1345 73.8774 72.426 74.5724 71.3177C75.4497 69.9188 71.5842 65.1169 73.2294 64.9778Z" fill="#2F2E41"/>
</svg>
