<svg width="434" height="625" viewBox="0 0 434 625" fill="none" xmlns="http://www.w3.org/2000/svg">
<path d="M108.237 431.63C110.303 431.759 111.445 429.193 109.882 427.697L109.727 427.078C109.747 427.029 109.768 426.979 109.788 426.93C111.878 421.948 118.958 421.983 121.03 426.972C122.868 431.4 125.209 435.836 125.786 440.518C126.044 442.585 125.928 444.69 125.469 446.718C129.777 437.308 132.044 427.032 132.044 416.697C132.044 414.101 131.902 411.504 131.612 408.914C131.373 406.796 131.043 404.69 130.617 402.604C128.311 391.327 123.318 380.586 116.117 371.615C112.655 369.722 109.768 366.764 108.024 363.218C107.397 361.939 106.906 360.563 106.674 359.162C107.068 359.214 108.159 353.213 107.862 352.845C108.411 352.012 109.394 351.598 109.994 350.785C112.976 346.741 117.085 347.447 119.23 352.942C123.812 355.255 123.856 359.09 121.045 362.779C119.256 365.126 119.01 368.301 117.441 370.814C117.602 371.02 117.77 371.221 117.932 371.427C120.893 375.225 123.454 379.307 125.613 383.596C125.003 378.83 125.903 373.088 127.439 369.386C129.187 365.169 132.464 361.617 135.35 357.971C138.816 353.592 145.923 355.503 146.534 361.055C146.539 361.108 146.545 361.162 146.551 361.216C146.122 361.458 145.702 361.714 145.292 361.986C142.953 363.533 143.761 367.16 146.533 367.587L146.596 367.597C146.441 369.141 146.176 370.671 145.789 372.176C149.491 386.492 141.499 391.706 130.087 391.941C129.835 392.07 129.59 392.199 129.338 392.322C130.494 395.577 131.418 398.916 132.102 402.301C132.716 405.291 133.142 408.314 133.381 411.349C133.678 415.179 133.653 419.029 133.33 422.853L133.349 422.717C134.169 418.506 136.456 414.572 139.776 411.847C144.721 407.784 151.708 406.288 157.044 403.023C159.612 401.451 162.903 403.482 162.455 406.46L162.433 406.602C161.639 406.925 160.864 407.3 160.114 407.72C159.686 407.961 159.266 408.218 158.856 408.489C156.516 410.037 157.325 413.663 160.097 414.091L160.16 414.101C160.205 414.107 160.244 414.114 160.289 414.12C158.926 417.356 157.027 420.36 154.65 422.95C152.336 435.447 142.394 436.632 131.76 432.993H131.754C130.591 438.057 128.892 443.004 126.709 447.719H108.689C108.624 447.519 108.566 447.312 108.508 447.112C110.175 447.216 111.854 447.119 113.494 446.815C112.157 445.175 110.82 443.521 109.483 441.881C109.451 441.848 109.425 441.816 109.399 441.784C108.721 440.944 108.037 440.111 107.358 439.271L107.358 439.27C107.316 436.693 107.625 434.123 108.237 431.63Z" fill="#F2F2F2"/>
<path d="M413.635 449H207.083C196.208 449 187.359 440.151 187.359 429.275V19.7246C187.359 8.84863 196.208 0 207.083 0H413.635C424.511 0 433.359 8.84863 433.359 19.7246V429.275C433.359 440.151 424.511 449 413.635 449ZM207.083 2C197.295 2 189.359 9.93536 189.359 19.7241V429.275C189.359 439.064 197.295 447 207.084 447H413.635C423.424 447 431.359 439.064 431.359 429.275V150.705C431.359 68.5774 364.782 2 282.655 2H207.083Z" fill="#E6E6E6"/>
<path d="M246.026 202.118C259.281 202.118 270.026 191.373 270.026 178.118C270.026 164.863 259.281 154.118 246.026 154.118C232.771 154.118 222.026 164.863 222.026 178.118C222.026 191.373 232.771 202.118 246.026 202.118Z" fill="#E6E6E6"/>
<path d="M374.692 202.118C387.947 202.118 398.692 191.373 398.692 178.118C398.692 164.863 387.947 154.118 374.692 154.118C361.438 154.118 350.692 164.863 350.692 178.118C350.692 191.373 361.438 202.118 374.692 202.118Z" fill="#E6E6E6"/>
<path d="M310.359 202.118C323.614 202.118 334.359 191.373 334.359 178.118C334.359 164.863 323.614 154.118 310.359 154.118C297.104 154.118 286.359 164.863 286.359 178.118C286.359 191.373 297.104 202.118 310.359 202.118Z" fill="#E6E6E6"/>
<path d="M246.026 271.118C259.281 271.118 270.026 260.373 270.026 247.118C270.026 233.863 259.281 223.118 246.026 223.118C232.771 223.118 222.026 233.863 222.026 247.118C222.026 260.373 232.771 271.118 246.026 271.118Z" fill="#E6E6E6"/>
<path d="M374.692 271.118C387.947 271.118 398.692 260.373 398.692 247.118C398.692 233.863 387.947 223.118 374.692 223.118C361.438 223.118 350.692 233.863 350.692 247.118C350.692 260.373 361.438 271.118 374.692 271.118Z" fill="#E6E6E6"/>
<path d="M310.359 271.118C323.614 271.118 334.359 260.373 334.359 247.118C334.359 233.863 323.614 223.118 310.359 223.118C297.104 223.118 286.359 233.863 286.359 247.118C286.359 260.373 297.104 271.118 310.359 271.118Z" fill="#E6E6E6"/>
<path d="M246.026 340.118C259.281 340.118 270.026 329.373 270.026 316.118C270.026 302.863 259.281 292.118 246.026 292.118C232.771 292.118 222.026 302.863 222.026 316.118C222.026 329.373 232.771 340.118 246.026 340.118Z" fill="#E6E6E6"/>
<path d="M374.202 409C387.456 409 398.202 398.255 398.202 385C398.202 371.745 387.456 361 374.202 361C360.947 361 350.202 371.745 350.202 385C350.202 398.255 360.947 409 374.202 409Z" fill="#E6E6E6"/>
<path d="M278.702 409C309.906 409 335.202 398.255 335.202 385C335.202 371.745 309.906 361 278.702 361C247.498 361 222.202 371.745 222.202 385C222.202 398.255 247.498 409 278.702 409Z" fill="#6C63FF"/>
<path d="M374.692 340.118C387.947 340.118 398.692 329.373 398.692 316.118C398.692 302.863 387.947 292.118 374.692 292.118C361.438 292.118 350.692 302.863 350.692 316.118C350.692 329.373 361.438 340.118 374.692 340.118Z" fill="#E6E6E6"/>
<path d="M310 340C323.255 340 334 329.255 334 316C334 302.745 323.255 292 310 292C296.745 292 286 302.745 286 316C286 329.255 296.745 340 310 340Z" fill="#E6E6E6"/>
<path d="M330.874 87H101.34C94.5344 87 89 92.5343 89 99.3403V183.66C89 190.466 94.5344 196 101.34 196H330.874C337.68 196 343.214 190.466 343.214 183.66V99.3403C343.214 92.5343 337.68 87 330.874 87Z" fill="white"/>
<path d="M330.874 87H101.34C94.5344 87 89 92.5343 89 99.3403V183.66C89 190.466 94.5344 196 101.34 196H330.874C337.68 196 343.214 190.466 343.214 183.66V99.3403C343.214 92.5343 337.68 87 330.874 87ZM341.917 183.66C341.917 189.752 336.966 194.702 330.874 194.702H101.34C95.248 194.702 90.2976 189.752 90.2976 183.66V99.3403C90.2976 93.248 95.248 88.2976 101.34 88.2976H330.874C336.966 88.2976 341.917 93.248 341.917 99.3403V183.66Z" fill="#3F3D56"/>
<path d="M324.5 141H120.5C118.567 141 117 142.567 117 144.5C117 146.433 118.567 148 120.5 148H324.5C326.433 148 328 146.433 328 144.5C328 142.567 326.433 141 324.5 141Z" fill="#6C63FF"/>
<path d="M4.84383 357.353L2.79938 369.528L20.93 413.631L30.6577 408.63L21.1897 367.358L19.8289 351.607L4.84383 357.353Z" fill="#A0616A"/>
<path d="M24.8578 288.86C24.8578 288.86 15.3652 284.262 7.99921 299.799C0.633254 315.336 1.5454 349.413 1.5454 349.413C1.5454 349.413 -1.13672 351.967 0.565903 353.755C2.26852 355.543 3.85583 358.381 2.11897 361.652C1.20357 363.376 -0.915004 366.749 2.55434 367.707C6.02368 368.665 22.2522 364.139 22.2522 364.139C22.2522 364.139 28.3206 361.42 24.8726 359.59C21.4247 357.759 26.2807 346.684 26.2807 346.684L30.2932 314.693L24.8578 288.86Z" fill="#6C63FF"/>
<path d="M32.3113 430.482C36.1214 429.312 37.6127 423.161 35.6422 416.744C33.6716 410.327 28.9854 406.073 25.1752 407.243C21.365 408.413 19.8737 414.564 21.8443 420.981C23.8149 427.398 28.5011 431.652 32.3113 430.482Z" fill="#A0616A"/>
<path d="M122.169 619.501L131.256 617.062L126.174 580.854L112.763 584.454L122.169 619.501Z" fill="#A0616A"/>
<path d="M153.246 610.942C153.656 611.342 154.218 612.84 154.367 613.394C154.824 615.098 153.814 616.849 152.111 617.306L123.971 624.857C122.809 625.168 121.614 624.479 121.302 623.317L120.988 622.146C120.988 622.146 118.651 618.998 120.353 613.889C120.353 613.889 124.826 616.332 128.721 609.581L129.527 606.316L143.119 611.577L149.624 610.662C151.048 610.462 152.217 609.938 153.246 610.942Z" fill="#2F2E41"/>
<path d="M33.103 619.293L42.5109 619.292L46.9863 583.004L33.1011 583.005L33.103 619.293Z" fill="#A0616A"/>
<path d="M65.3357 619.079C65.6286 619.572 65.7832 621.165 65.7832 621.738C65.7832 623.502 64.3536 624.932 62.5901 624.932H33.4549C32.2519 624.932 31.2766 623.956 31.2766 622.753V621.54C31.2766 621.54 29.8353 617.895 32.8027 613.401C32.8027 613.401 36.4907 616.92 42.0016 611.409L43.6267 608.465L55.3903 617.068L61.9107 617.871C63.3372 618.046 64.6019 617.843 65.3357 619.079Z" fill="#2F2E41"/>
<path d="M95.7145 403.137L120.453 509.769L132.396 595.928L113.629 598.487L61.5922 451.761L49.6494 598.487L28.3229 600.193C28.3229 600.193 11.2618 426.169 18.9393 404.843L95.7145 403.137Z" fill="#2F2E41"/>
<path d="M125.161 277.046L133.697 268.127L143.499 221.461L132.642 220.127L117.268 259.582L109.538 273.373L125.161 277.046Z" fill="#A0616A"/>
<path d="M70.1018 322.437C70.1018 322.437 78.0901 337.166 92.917 328.458C107.744 319.75 123.425 285.467 123.425 285.467C123.425 285.467 126.556 276.751 129.832 275.023C131.558 274.112 136 273.129 133.669 270.386C131.339 267.643 114.58 261.647 114.58 261.647C114.58 261.647 108.033 260.483 109.855 263.936C111.677 267.388 105.693 265.25 106.297 268.904C106.901 272.558 101.435 273.817 101.435 273.817L70.1018 322.437Z" fill="#6C63FF"/>
<path d="M146.875 214.868C148.853 208.454 147.369 202.301 143.56 201.127C139.751 199.952 135.06 204.2 133.082 210.615C131.104 217.03 132.588 223.182 136.396 224.357C140.205 225.531 144.896 221.283 146.875 214.868Z" fill="#A0616A"/>
<path d="M71.1623 271.405H47.806L46.8608 278.769C46.8608 278.769 17.4044 286.87 18.1408 291.288C18.8772 295.707 23.2957 369.347 23.2957 369.347L19.6136 406.168C19.6136 406.168 85.8905 434.151 96.2002 401.013L91.0453 362.72C91.0453 362.72 103.564 297.179 100.619 294.234C97.673 291.288 73.3715 279.506 73.3715 279.506L71.1623 271.405Z" fill="#6C63FF"/>
<path d="M57.5954 271.497C69.1735 271.497 78.5594 262.111 78.5594 250.533C78.5594 238.955 69.1735 229.569 57.5954 229.569C46.0173 229.569 36.6314 238.955 36.6314 250.533C36.6314 262.111 46.0173 271.497 57.5954 271.497Z" fill="#A0616A"/>
<path d="M73.1211 241.909C75.7997 241.683 78.4782 241.456 81.1567 241.23C80.236 240.808 79.2771 240.356 78.6636 239.55C78.0502 238.744 77.9234 237.47 78.6644 236.779C79.5303 235.972 80.9644 236.4 81.9108 237.111C81.3897 234.39 79.7657 231.897 77.4874 230.321C74.7043 228.395 67.8193 230.691 64.4641 230.249C60.5928 229.739 60.1097 226.439 56.2384 225.929C54.7793 225.737 53.1372 225.592 51.9898 226.513C50.7171 227.536 50.5744 229.469 49.4516 230.653C47.8485 232.345 45.1009 231.846 42.8195 232.322C39.5882 232.996 37.1524 235.83 36.0274 238.933C34.9024 242.036 34.8609 245.412 34.8322 248.712C34.8001 252.412 34.7885 256.694 37.4641 259.249C39.094 260.806 43.5342 266.146 44.0142 268.349C44.3551 269.913 58.2479 271.818 61.259 271.731L71.522 268.349C72.5306 263.907 70.8621 255.121 68.4641 251.249C69.2538 252.292 72.9058 255.432 73.4641 254.249C74.0224 253.066 73.7691 249.358 74.4641 248.249C75.3414 246.85 71.4759 242.048 73.1211 241.909Z" fill="#2F2E41"/>
<path d="M375 271C388.255 271 399 260.255 399 247C399 233.745 388.255 223 375 223C361.745 223 351 233.745 351 247C351 260.255 361.745 271 375 271Z" fill="#6C63FF"/>
</svg>
