<svg width="20" height="20" viewBox="0 0 100 100" fill="currentColor" xmlns="http://www.w3.org/2000/svg">
<g clip-path="url(#clip0_1_14)">
<path d="M50.0001 16.6666C56.5928 16.6666 63.0374 18.6216 68.5191 22.2843C74.0007 25.947 78.2731 31.153 80.796 37.2439C83.319 43.3347 83.9791 50.037 82.6929 56.503C81.4067 62.969 78.232 68.9085 73.5703 73.5702C68.9085 78.232 62.9691 81.4066 56.5031 82.6928C50.037 83.979 43.3348 83.3189 37.2439 80.796C31.1531 78.273 25.9471 74.0006 22.2844 68.519C18.6217 63.0373 16.6667 56.5927 16.6667 50C16.6667 41.1594 20.1786 32.681 26.4298 26.4298C32.681 20.1785 41.1595 16.6666 50.0001 16.6666ZM50.0001 8.33331C41.7592 8.33331 33.7033 10.777 26.8513 15.3554C19.9993 19.9338 14.6587 26.4412 11.5051 34.0548C8.35143 41.6684 7.52629 50.0462 9.13401 58.1287C10.7417 66.2113 14.7101 73.6356 20.5373 79.4628C26.3645 85.2899 33.7888 89.2583 41.8713 90.866C49.9538 92.4738 58.3316 91.6486 65.9452 88.495C73.5588 85.3413 80.0662 80.0008 84.6446 73.1487C89.223 66.2967 91.6667 58.2409 91.6667 50C91.6667 44.5282 90.589 39.1101 88.495 34.0548C86.4011 28.9996 83.3319 24.4063 79.4628 20.5372C75.5937 16.6681 71.0004 13.5989 65.9452 11.505C60.89 9.41105 55.4718 8.33331 50.0001 8.33331Z" fill="currentColor"/>
<path d="M45.8333 45.8333H25V54.1666H45.8333V45.8333Z" fill="currentColor"/>
<path d="M75 45.8333H54.1666V54.1666H75V45.8333Z" fill="currentColor"/>
<path d="M68.75 39.5833H60.4166V60.4166H68.75V39.5833Z" fill="currentColor"/>
</g>
<defs>
<clipPath id="clip0_1_14">
<rect width="100" height="100" fill="white"/>
</clipPath>
</defs>
</svg>
