<svg width="20" height="20" viewBox="0 0 100 100" fill="currentColor" xmlns="http://www.w3.org/2000/svg">
<path fill-rule="evenodd" clip-rule="evenodd" d="M77.0834 20C77.0834 18.8332 77.0834 18.2499 76.8563 17.8042C76.6567 17.4122 76.338 17.0935 75.9459 16.8938C75.5 16.6667 74.9167 16.6667 73.75 16.6667H63.75C62.5834 16.6667 62 16.6667 61.5542 16.8938C61.1621 17.0935 60.8434 17.4122 60.6438 17.8042C60.4167 18.2499 60.4167 18.8332 60.4167 20V25H39.5834V20C39.5834 18.8332 39.5834 18.2499 39.3563 17.8042C39.1566 17.4122 38.8379 17.0935 38.4459 16.8938C38.0002 16.6667 37.4168 16.6667 36.25 16.6667H26.25C25.0832 16.6667 24.4999 16.6667 24.0542 16.8938C23.6622 17.0935 23.3435 17.4122 23.1438 17.8042C22.9167 18.2499 22.9167 18.8332 22.9167 20V25H16.6667C12.0417 25 8.33337 28.7084 8.33337 33.3334V75C8.33337 79.625 12.0417 83.3334 16.6667 83.3334H83.3334C87.9584 83.3334 91.6667 79.625 91.6667 75L91.625 33.3334C91.625 28.7084 87.9584 25 83.3334 25H77.0834V20ZM16.6667 75V33.3334L83.2917 33.3417L83.3334 75H16.6667Z" fill="currentColor"/>
</svg>
