<svg width="20" height="20" viewBox="0 0 96 95" fill="none" xmlns="http://www.w3.org/2000/svg">
<path d="M35.8285 47.683H59.7034V59.5996C59.7039 61.6818 58.8884 63.6812 57.4317 65.1689C55.9751 66.6567 53.9934 67.5144 51.9118 67.558H43.5784C41.4678 67.558 39.4435 66.7195 37.9511 65.227C36.4586 63.7346 35.6201 61.7103 35.6201 59.5996V47.683H35.8285Z" stroke="currentColor" stroke-width="8" stroke-miterlimit="8"/>
<path d="M55.7035 31.7664H39.7869V47.683H55.7035V31.7664Z" stroke="currentColor" stroke-width="8" stroke-miterlimit="8"/>
<path d="M47.7451 67.558V82.5997C47.7285 83.7685 47.9736 84.9262 48.4625 85.9879C48.9515 87.0497 49.6718 87.9885 50.5708 88.7357C51.4698 89.4828 52.5246 90.0193 53.6578 90.3058C54.7911 90.5923 55.9741 90.6215 57.1201 90.3913C66.597 88.3016 75.109 83.1174 81.3142 75.6559C87.5194 68.1945 91.0649 58.88 91.3919 49.181C91.7189 39.4819 88.8087 29.9499 83.1201 22.0874C77.4315 14.225 69.288 8.4793 59.9734 5.75612C50.6587 3.03293 40.7027 3.48712 31.6746 7.04709C22.6466 10.6071 15.0601 17.0703 10.111 25.4181C5.16191 33.7658 3.1317 43.5233 4.34041 53.1522C5.54912 62.7812 9.92801 71.7341 16.7868 78.5997" stroke="currentColor" stroke-width="8" stroke-miterlimit="8"/>
</svg>
