<svg width="18" height="18" viewBox="0 0 84 84" fill="none" xmlns="http://www.w3.org/2000/svg">
<path d="M82.65 9.5C82.65 5.00602 78.994 1.35 74.5 1.35H9.5C5.00602 1.35 1.35 5.00602 1.35 9.5V74.5C1.35 78.994 5.00602 82.65 9.5 82.65H74.5C78.994 82.65 82.65 78.994 82.65 74.5V9.5ZM76.35 9.5V26.35H57.65V7.65H74.5C75.516 7.65 76.35 8.48399 76.35 9.5ZM32.65 32.65H76.35V71.375C76.35 74.1098 74.1098 76.35 71.375 76.35H32.65V32.65ZM51.35 7.65V26.35H32.65V7.65H51.35ZM26.35 7.65V26.35H7.65V9.5C7.65 8.48399 8.48399 7.65 9.5 7.65H26.35ZM26.35 32.65V51.35H7.65V32.65H26.35ZM7.65 57.65H26.35V76.35H9.5C8.48399 76.35 7.65 75.516 7.65 74.5V57.65Z" fill="currentColor" stroke="currentColor" stroke-width="1.3"/>
</svg>
