<svg width="401" height="83" viewBox="0 0 401 83" fill="none" xmlns="http://www.w3.org/2000/svg">
<path d="M9.53931 32.579C9.53931 30.523 11.5607 29.0762 13.5069 29.7394L33.0693 36.4051C35.9051 37.3713 37.8116 40.0351 37.8116 43.031V67.6673C37.8116 69.7484 35.7443 71.1973 33.788 70.4873L14.151 63.3598C11.3827 62.3549 9.53931 59.7249 9.53931 56.7798V32.579Z" fill="#B5C8BD"/>
<path d="M42.2328 2.0591C42.2199 2.02646 42.183 2.01047 42.1503 2.02339L8.31952 15.4148C4.50529 16.9246 2 20.6107 2 24.7128L2 66.0838C2 66.3151 2.18753 66.5026 2.41885 66.5026V66.5026V24.9975C2.41885 20.8953 4.92415 17.2092 8.73837 15.6994L38.5793 3.88738C40.9376 2.95391 43.5624 2.95139 45.9225 3.88034L81.5811 17.9162V17.9162C81.6659 17.701 81.5601 17.4578 81.3448 17.3731L42.4137 2.04911C42.3856 2.03806 42.3539 2.05187 42.3428 2.07996V2.07996C42.3247 2.12611 42.2594 2.12617 42.2411 2.08006L42.2328 2.0591Z" fill="white"/>
<path d="M81.5811 17.9162V66.5026L42.2094 81.1623L2.41885 66.5026V66.5026C2.33888 66.7197 2.45002 66.9605 2.66708 67.0404L41.6716 81.4105C41.8887 81.4905 42.1295 81.3794 42.2094 81.1623V81.1623V81.1623C42.2901 81.3791 42.5313 81.4894 42.7481 81.4087L81.3348 67.0413C81.5516 66.9606 81.6619 66.7194 81.5811 66.5026V66.5026V66.5026C81.8125 66.5026 82 66.3151 82 66.0838V18.3351C82 18.1038 81.8125 17.9162 81.5811 17.9162V17.9162Z" fill="white"/>
<path d="M2.41885 66.5026V66.5026C2.18753 66.5026 2 66.3151 2 66.0838L2 24.7128C2 20.6107 4.50529 16.9246 8.31952 15.4148L42.1503 2.02339C42.183 2.01047 42.2199 2.02646 42.2328 2.0591L42.2411 2.08006C42.2594 2.12617 42.3247 2.12611 42.3428 2.07996V2.07996C42.3539 2.05187 42.3856 2.03806 42.4137 2.04911L81.3448 17.3731C81.5601 17.4578 81.6659 17.701 81.5811 17.9162V17.9162M2.41885 66.5026V24.9975C2.41885 20.8953 4.92415 17.2092 8.73837 15.6994L38.5793 3.88738C40.9376 2.95391 43.5624 2.95139 45.9225 3.88034L81.5811 17.9162M2.41885 66.5026L42.2094 81.1623M2.41885 66.5026V66.5026C2.33888 66.7197 2.45002 66.9605 2.66708 67.0404L41.6716 81.4105C41.8887 81.4905 42.1295 81.3794 42.2094 81.1623V81.1623M81.5811 17.9162V66.5026M81.5811 17.9162V17.9162C81.8125 17.9162 82 18.1038 82 18.3351V66.0838C82 66.3151 81.8125 66.5026 81.5811 66.5026V66.5026M81.5811 66.5026L42.2094 81.1623M81.5811 66.5026V66.5026C81.6619 66.7194 81.5516 66.9606 81.3348 67.0413L42.7481 81.4087C42.5313 81.4894 42.2901 81.3791 42.2094 81.1623V81.1623" stroke="#B5C8BD" stroke-width="3"/>
<path d="M54.356 44.9318L72.3664 38.4397V44.513L54.356 51.6334V44.9318Z" fill="#B5C8BD"/>
<path d="M54.356 55.403L72.3664 48.9109V54.9842L54.356 61.6858V55.403Z" fill="#B5C8BD"/>
<path d="M14.9844 50.1678L32.9948 56.6599V50.5866L14.9844 43.885V50.1678Z" fill="#171717"/>
<path d="M36.1361 11.6335L58.7539 20.2199L52.2617 23.1519L29.2251 14.3561L36.1361 11.6335Z" fill="#B5C8BD"/>
<path d="M29.644 20.22L51.0053 11.843L57.9163 14.5655L36.3456 23.1519L29.644 20.22Z" fill="#B5C8BD"/>
<path d="M149.509 67.18L150.569 65.64C151.049 66.02 152.789 67.44 155.809 67.44C157.949 67.44 159.269 66.5 159.269 65.06C159.249 61.56 149.569 63.66 149.529 58.52C149.509 56.54 151.209 54.8 155.029 54.8C158.189 54.8 159.869 55.84 160.669 56.4L159.709 57.9C159.089 57.46 157.649 56.58 155.029 56.58C152.369 56.58 151.629 57.52 151.629 58.48C151.649 61.78 161.389 59.64 161.389 64.96C161.389 67.42 159.209 69.2 155.769 69.2C151.929 69.2 150.029 67.58 149.509 67.18ZM164.197 55H174.517V56.76H166.317V61.14H173.457V62.86H166.317V67.24H174.517V69H164.197V55ZM183.865 69.2C179.785 69.2 176.445 66.48 176.445 62.04C176.445 57.66 179.845 54.8 183.865 54.8C186.165 54.8 188.185 55.8 189.485 57.32L188.065 58.5C187.105 57.4 185.785 56.58 183.905 56.58C180.985 56.58 178.565 58.72 178.565 62.04C178.565 65.34 181.005 67.42 183.925 67.42C185.925 67.42 187.145 66.58 188.045 65.52L189.385 66.64C188.285 68.14 186.265 69.2 183.865 69.2ZM198.165 69.2C194.985 69.2 192.225 67.3 192.225 63.74L192.245 55H194.365L194.345 63.74C194.345 65.76 195.645 67.44 198.145 67.44C200.705 67.44 201.945 65.76 201.945 63.74V55H204.065V63.74C204.065 67.3 201.325 69.2 198.165 69.2ZM209.794 69H207.674V55H214.214C216.974 55 218.994 56.92 218.994 59.5C218.994 61.5 217.674 63.28 215.594 63.8L219.314 69H216.894L213.314 64H209.794V69ZM209.794 56.78V62.24H213.854C215.934 62.22 216.914 61.06 216.914 59.5C216.914 57.8 215.814 56.78 213.854 56.78H209.794ZM224.134 55V69H222.014V55H224.134ZM226.546 56.78V55H237.886V56.78H233.266L233.286 69H231.166V56.78H226.546ZM244.455 63.46L239.035 55H241.435L245.515 61.36L249.615 55H251.995L246.575 63.46V69H244.455V63.46ZM259.764 55H270.084V56.76H261.884V61.14H269.024V62.86H261.884V67.24H270.084V69H259.764V55ZM272.205 67.18L273.265 65.64C273.745 66.02 275.485 67.44 278.505 67.44C280.645 67.44 281.965 66.5 281.965 65.06C281.945 61.56 272.265 63.66 272.225 58.52C272.205 56.54 273.905 54.8 277.725 54.8C280.885 54.8 282.565 55.84 283.365 56.4L282.405 57.9C281.785 57.46 280.345 56.58 277.725 56.58C275.065 56.58 274.325 57.52 274.325 58.48C274.345 61.78 284.085 59.64 284.085 64.96C284.085 67.42 281.905 69.2 278.465 69.2C274.625 69.2 272.725 67.58 272.205 67.18ZM286.033 67.18L287.093 65.64C287.573 66.02 289.313 67.44 292.333 67.44C294.473 67.44 295.793 66.5 295.793 65.06C295.773 61.56 286.093 63.66 286.053 58.52C286.033 56.54 287.733 54.8 291.553 54.8C294.713 54.8 296.393 55.84 297.193 56.4L296.233 57.9C295.613 57.46 294.173 56.58 291.553 56.58C288.893 56.58 288.153 57.52 288.153 58.48C288.173 61.78 297.913 59.64 297.913 64.96C297.913 67.42 295.733 69.2 292.293 69.2C288.453 69.2 286.553 67.58 286.033 67.18ZM300.721 55H311.041V56.76H302.841V61.14H309.981V62.86H302.841V67.24H311.041V69H300.721V55ZM314.022 55H316.302L324.282 65.96V55H326.402V69H324.002L316.142 58.14V69H314.022V55ZM328.636 56.78V55H339.976V56.78H335.356L335.376 69H333.256V56.78H328.636ZM344.525 55V69H342.405V55H344.525ZM346.897 69L353.397 55H355.597L362.097 69H359.897L358.397 65.8H350.597L349.117 69H346.897ZM354.497 57.36L351.397 64.04H357.597L354.497 57.36ZM366.415 67.22H373.715V69H364.295V55H366.415V67.22ZM375.623 67.18L376.683 65.64C377.163 66.02 378.903 67.44 381.923 67.44C384.063 67.44 385.383 66.5 385.383 65.06C385.363 61.56 375.683 63.66 375.643 58.52C375.623 56.54 377.323 54.8 381.143 54.8C384.303 54.8 385.983 55.84 386.783 56.4L385.823 57.9C385.203 57.46 383.763 56.58 381.143 56.58C378.483 56.58 377.743 57.52 377.743 58.48C377.763 61.78 387.503 59.64 387.503 64.96C387.503 67.42 385.323 69.2 381.883 69.2C378.043 69.2 376.143 67.58 375.623 67.18Z" fill="#D9D9D9"/>
<g filter="url(#filter0_dd_17_15)">
<path d="M116.606 47.4C108.246 47.4 101.366 41.92 101.366 33.08C101.366 24.36 108.326 18.68 116.606 18.64C122.566 18.64 126.766 21.36 128.806 24.32L123.486 28.24C122.326 26.68 120.446 25.04 117.006 25.04C112.886 25.04 109.326 28.2 109.326 33.08C109.326 37.92 112.806 40.96 116.966 40.96C121.006 40.96 122.726 39.08 123.646 37.68L128.766 41.24C127.286 43.84 123.286 47.4 116.606 47.4ZM138.884 47H130.484L143.124 19H151.444L164.044 47H155.684L153.684 42.48H140.884L138.884 47ZM143.644 36.16H150.884L147.284 28.08L143.644 36.16ZM175.215 40.64H188.135V47H167.255V19H175.215V40.64ZM203.793 47.4C195.433 47.4 188.553 41.92 188.553 33.08C188.553 24.36 195.513 18.68 203.793 18.64C209.753 18.64 213.953 21.36 215.993 24.32L210.673 28.24C209.513 26.68 207.633 25.04 204.193 25.04C200.073 25.04 196.513 28.2 196.513 33.08C196.513 37.92 199.993 40.96 204.153 40.96C208.193 40.96 209.913 39.08 210.833 37.68L215.953 41.24C214.473 43.84 210.473 47.4 203.793 47.4ZM232.511 47.44C225.751 47.44 219.911 43.52 219.911 36.16V19H227.871V36.16C227.871 38.8 229.471 41.08 232.471 41.08C235.551 41.08 237.111 38.8 237.111 36.16V19H245.071V36.16C245.071 43.52 239.231 47.44 232.511 47.44ZM258.301 40.64H271.221V47H250.341V19H258.301V40.64ZM281.462 47H273.062L285.702 19H294.022L306.622 47H298.262L296.262 42.48H283.462L281.462 47ZM286.222 36.16H293.462L289.862 28.08L286.222 36.16ZM305.53 25.36V19H330.25V25.36H321.85V47H313.89V25.36H305.53ZM331.092 32.92C331.092 24.84 337.612 18.56 346.332 18.56C355.052 18.56 361.572 24.92 361.532 32.92C361.492 41.04 355.012 47.48 346.332 47.44C337.612 47.4 331.092 40.92 331.092 32.92ZM339.052 32.92C339.052 37.2 342.292 40.68 346.332 40.68C350.332 40.68 353.572 37.24 353.572 32.92C353.572 28.64 350.332 25.36 346.332 25.36C342.292 25.36 339.052 28.68 339.052 32.92ZM365.693 47V19H379.973C386.493 19 390.493 23.36 390.493 28.96C390.493 32.8 388.533 36.12 385.133 37.72L391.453 47H382.453L376.893 38.88H373.653V47H365.693ZM373.653 25.36V32.52H379.293C381.733 32.52 382.893 30.84 382.933 28.96C382.933 27 381.653 25.36 379.293 25.36H373.653Z" fill="#D9D9D9"/>
</g>
<defs>
<filter id="filter0_dd_17_15" x="97.3658" y="18.5601" width="298.087" height="36.9199" filterUnits="userSpaceOnUse" color-interpolation-filters="sRGB">
<feFlood flood-opacity="0" result="BackgroundImageFix"/>
<feColorMatrix in="SourceAlpha" type="matrix" values="0 0 0 0 0 0 0 0 0 0 0 0 0 0 0 0 0 0 127 0" result="hardAlpha"/>
<feOffset dy="4"/>
<feGaussianBlur stdDeviation="2"/>
<feComposite in2="hardAlpha" operator="out"/>
<feColorMatrix type="matrix" values="0 0 0 0 0 0 0 0 0 0 0 0 0 0 0 0 0 0 0.25 0"/>
<feBlend mode="normal" in2="BackgroundImageFix" result="effect1_dropShadow_17_15"/>
<feColorMatrix in="SourceAlpha" type="matrix" values="0 0 0 0 0 0 0 0 0 0 0 0 0 0 0 0 0 0 127 0" result="hardAlpha"/>
<feOffset dy="4"/>
<feGaussianBlur stdDeviation="2"/>
<feComposite in2="hardAlpha" operator="out"/>
<feColorMatrix type="matrix" values="0 0 0 0 0 0 0 0 0 0 0 0 0 0 0 0 0 0 0.25 0"/>
<feBlend mode="normal" in2="effect1_dropShadow_17_15" result="effect2_dropShadow_17_15"/>
<feBlend mode="normal" in="SourceGraphic" in2="effect2_dropShadow_17_15" result="shape"/>
</filter>
</defs>
</svg>
