<svg width="414" height="98" viewBox="0 0 414 98" fill="none" xmlns="http://www.w3.org/2000/svg">
<rect width="414" height="98" fill="#171717"/>
<path d="M24.5393 40.579C24.5393 38.523 26.5607 37.0762 28.5069 37.7394L48.0693 44.4051C50.9051 45.3713 52.8116 48.0351 52.8116 51.031V75.6673C52.8116 77.7484 50.7443 79.1973 48.788 78.4873L29.151 71.3598C26.3827 70.3549 24.5393 67.7249 24.5393 64.7798V40.579Z" fill="#0DB159"/>
<path d="M57.2328 10.0591C57.2199 10.0265 57.183 10.0105 57.1503 10.0234L23.3195 23.4148C19.5053 24.9246 17 28.6107 17 32.7128L17 74.0838C17 74.3151 17.1875 74.5026 17.4189 74.5026V74.5026V32.9975C17.4189 28.8953 19.9242 25.2092 23.7384 23.6994L53.5793 11.8874C55.9376 10.9539 58.5624 10.9514 60.9225 11.8803L96.5811 25.9162V25.9162C96.6659 25.701 96.5601 25.4578 96.3448 25.3731L57.4137 10.0491C57.3856 10.0381 57.3539 10.0519 57.3428 10.08V10.08C57.3247 10.1261 57.2594 10.1262 57.2411 10.0801L57.2328 10.0591Z" fill="white"/>
<path d="M96.5811 25.9162V74.5026L57.2094 89.1623L17.4189 74.5026V74.5026C17.3389 74.7197 17.45 74.9605 17.6671 75.0404L56.6716 89.4105C56.8887 89.4905 57.1295 89.3794 57.2094 89.1623V89.1623V89.1623C57.2901 89.3791 57.5313 89.4894 57.7481 89.4087L96.3348 75.0413C96.5516 74.9606 96.6619 74.7194 96.5811 74.5026V74.5026V74.5026C96.8125 74.5026 97 74.3151 97 74.0838V26.3351C97 26.1038 96.8125 25.9162 96.5811 25.9162V25.9162Z" fill="white"/>
<path d="M17.4189 74.5026V74.5026C17.1875 74.5026 17 74.3151 17 74.0838L17 32.7128C17 28.6107 19.5053 24.9246 23.3195 23.4148L57.1503 10.0234C57.183 10.0105 57.2199 10.0265 57.2328 10.0591L57.2411 10.0801C57.2594 10.1262 57.3247 10.1261 57.3428 10.08V10.08C57.3539 10.0519 57.3856 10.0381 57.4137 10.0491L96.3448 25.3731C96.5601 25.4578 96.6659 25.701 96.5811 25.9162V25.9162M17.4189 74.5026V32.9975C17.4189 28.8953 19.9242 25.2092 23.7384 23.6994L53.5793 11.8874C55.9376 10.9539 58.5624 10.9514 60.9225 11.8803L96.5811 25.9162M17.4189 74.5026L57.2094 89.1623M17.4189 74.5026V74.5026C17.3389 74.7197 17.45 74.9605 17.6671 75.0404L56.6716 89.4105C56.8887 89.4905 57.1295 89.3794 57.2094 89.1623V89.1623M96.5811 25.9162V74.5026M96.5811 25.9162V25.9162C96.8125 25.9162 97 26.1038 97 26.3351V74.0838C97 74.3151 96.8125 74.5026 96.5811 74.5026V74.5026M96.5811 74.5026L57.2094 89.1623M96.5811 74.5026V74.5026C96.6619 74.7194 96.5516 74.9606 96.3348 75.0413L57.7481 89.4087C57.5313 89.4894 57.2901 89.3791 57.2094 89.1623V89.1623" stroke="white" stroke-width="3"/>
<path d="M69.356 52.9318L87.3664 46.4397V52.513L69.356 59.6334V52.9318Z" fill="white"/>
<path d="M69.356 63.403L87.3664 56.9109V62.9842L69.356 69.6858V63.403Z" fill="white"/>
<path d="M29.9844 58.1678L47.9948 64.6599V58.5866L29.9844 51.885V58.1678Z" fill="white"/>
<path d="M51.1361 19.6335L73.7539 28.2199L67.2617 31.1519L44.2251 22.3561L51.1361 19.6335Z" fill="white"/>
<path d="M44.644 28.22L66.0053 19.843L72.9163 22.5655L51.3456 31.1519L44.644 28.22Z" fill="white"/>
<path d="M108.509 76.18C109.029 76.58 110.929 78.2 114.769 78.2C118.209 78.2 120.389 76.42 120.389 73.96C120.389 68.64 110.649 70.78 110.629 67.48C110.629 66.52 111.369 65.58 114.029 65.58C116.649 65.58 118.089 66.46 118.709 66.9L119.669 65.4C118.869 64.84 117.189 63.8 114.029 63.8C110.209 63.8 108.509 65.54 108.529 67.52C108.569 72.66 118.249 70.56 118.269 74.06C118.269 75.5 116.949 76.44 114.809 76.44C111.789 76.44 110.049 75.02 109.569 74.64L108.509 76.18ZM123.197 64V78H133.517V76.24H125.317V71.86H132.457V70.14H125.317V65.76H133.517V64H123.197ZM142.865 78.2C145.265 78.2 147.285 77.14 148.385 75.64L147.045 74.52C146.145 75.58 144.925 76.42 142.925 76.42C140.005 76.42 137.565 74.34 137.565 71.04C137.565 67.72 139.985 65.58 142.905 65.58C144.785 65.58 146.105 66.4 147.065 67.5L148.485 66.32C147.185 64.8 145.165 63.8 142.865 63.8C138.845 63.8 135.445 66.66 135.445 71.04C135.445 75.48 138.785 78.2 142.865 78.2ZM157.165 78.2C160.325 78.2 163.065 76.3 163.065 72.74V64H160.945V72.74C160.945 74.76 159.705 76.44 157.145 76.44C154.645 76.44 153.345 74.76 153.345 72.74L153.365 64H151.245L151.225 72.74C151.225 76.3 153.985 78.2 157.165 78.2ZM168.794 78V73H172.314L175.894 78H178.314L174.594 72.8C176.674 72.28 177.994 70.5 177.994 68.5C177.994 65.92 175.974 64 173.214 64H166.674V78H168.794ZM168.794 65.78H172.854C174.814 65.78 175.914 66.8 175.914 68.5C175.914 70.06 174.934 71.22 172.854 71.24H168.794V65.78ZM183.134 64H181.014V78H183.134V64ZM185.546 65.78H190.166V78H192.286L192.266 65.78H196.886V64H185.546V65.78ZM203.455 72.46V78H205.575V72.46L210.995 64H208.615L204.515 70.36L200.435 64H198.035L203.455 72.46ZM218.764 64V78H229.084V76.24H220.884V71.86H228.024V70.14H220.884V65.76H229.084V64H218.764ZM231.205 76.18C231.725 76.58 233.625 78.2 237.465 78.2C240.905 78.2 243.085 76.42 243.085 73.96C243.085 68.64 233.345 70.78 233.325 67.48C233.325 66.52 234.065 65.58 236.725 65.58C239.345 65.58 240.785 66.46 241.405 66.9L242.365 65.4C241.565 64.84 239.885 63.8 236.725 63.8C232.905 63.8 231.205 65.54 231.225 67.52C231.265 72.66 240.945 70.56 240.965 74.06C240.965 75.5 239.645 76.44 237.505 76.44C234.485 76.44 232.745 75.02 232.265 74.64L231.205 76.18ZM245.033 76.18C245.553 76.58 247.453 78.2 251.293 78.2C254.733 78.2 256.913 76.42 256.913 73.96C256.913 68.64 247.173 70.78 247.153 67.48C247.153 66.52 247.893 65.58 250.553 65.58C253.173 65.58 254.613 66.46 255.233 66.9L256.193 65.4C255.393 64.84 253.713 63.8 250.553 63.8C246.733 63.8 245.033 65.54 245.053 67.52C245.093 72.66 254.773 70.56 254.793 74.06C254.793 75.5 253.473 76.44 251.333 76.44C248.313 76.44 246.573 75.02 246.093 74.64L245.033 76.18ZM259.721 64V78H270.041V76.24H261.841V71.86H268.981V70.14H261.841V65.76H270.041V64H259.721ZM273.022 64V78H275.142V67.14L283.002 78H285.402V64H283.282V74.96L275.302 64H273.022ZM287.636 65.78H292.256V78H294.376L294.356 65.78H298.976V64H287.636V65.78ZM303.525 64H301.405V78H303.525V64ZM305.897 78H308.117L309.597 74.8H317.397L318.897 78H321.097L314.597 64H312.397L305.897 78ZM313.497 66.36L316.597 73.04H310.397L313.497 66.36ZM325.415 76.22V64H323.295V78H332.715V76.22H325.415ZM334.623 76.18C335.143 76.58 337.043 78.2 340.883 78.2C344.323 78.2 346.503 76.42 346.503 73.96C346.503 68.64 336.763 70.78 336.743 67.48C336.743 66.52 337.483 65.58 340.143 65.58C342.763 65.58 344.203 66.46 344.823 66.9L345.783 65.4C344.983 64.84 343.303 63.8 340.143 63.8C336.323 63.8 334.623 65.54 334.643 67.52C334.683 72.66 344.363 70.56 344.383 74.06C344.383 75.5 343.063 76.44 340.923 76.44C337.903 76.44 336.163 75.02 335.683 74.64L334.623 76.18Z" fill="white"/>
<path d="M123.606 51.4C130.286 51.4 134.286 47.84 135.766 45.24L130.646 41.68C129.726 43.08 128.006 44.96 123.966 44.96C119.806 44.96 116.326 41.92 116.326 37.08C116.326 32.2 119.886 29.04 124.006 29.04C127.446 29.04 129.326 30.68 130.486 32.24L135.806 28.32C133.766 25.36 129.566 22.64 123.606 22.64C115.326 22.68 108.366 28.36 108.366 37.08C108.366 45.92 115.246 51.4 123.606 51.4ZM145.884 51L147.884 46.48H160.684L162.684 51H171.044L158.444 23H150.124L137.484 51H145.884ZM150.644 40.16L154.284 32.08L157.884 40.16H150.644ZM182.215 44.64V23H174.255V51H195.135V44.64H182.215ZM210.793 51.4C217.473 51.4 221.473 47.84 222.953 45.24L217.833 41.68C216.913 43.08 215.193 44.96 211.153 44.96C206.993 44.96 203.513 41.92 203.513 37.08C203.513 32.2 207.073 29.04 211.193 29.04C214.633 29.04 216.513 30.68 217.673 32.24L222.993 28.32C220.953 25.36 216.753 22.64 210.793 22.64C202.513 22.68 195.553 28.36 195.553 37.08C195.553 45.92 202.433 51.4 210.793 51.4ZM239.511 51.44C246.231 51.44 252.071 47.52 252.071 40.16V23H244.111V40.16C244.111 42.8 242.551 45.08 239.471 45.08C236.471 45.08 234.871 42.8 234.871 40.16V23H226.911V40.16C226.911 47.52 232.751 51.44 239.511 51.44ZM265.301 44.64V23H257.341V51H278.221V44.64H265.301ZM288.462 51L290.462 46.48H303.262L305.262 51H313.622L301.022 23H292.702L280.062 51H288.462ZM293.222 40.16L296.862 32.08L300.462 40.16H293.222ZM312.53 29.36H320.89V51H328.85V29.36H337.25V23H312.53V29.36ZM338.092 36.92C338.092 44.92 344.612 51.4 353.332 51.44C362.012 51.48 368.492 45.04 368.532 36.92C368.572 28.92 362.052 22.56 353.332 22.56C344.612 22.56 338.092 28.84 338.092 36.92ZM346.052 36.92C346.052 32.68 349.292 29.36 353.332 29.36C357.332 29.36 360.572 32.64 360.572 36.92C360.572 41.24 357.332 44.68 353.332 44.68C349.292 44.68 346.052 41.2 346.052 36.92ZM372.693 51H380.653V42.88H383.893L389.453 51H398.453L392.133 41.72C395.533 40.12 397.493 36.8 397.493 32.96C397.493 27.36 393.493 23 386.973 23H372.693V51ZM380.653 29.36H386.293C388.653 29.36 389.933 31 389.933 32.96C389.893 34.84 388.733 36.52 386.293 36.52H380.653V29.36Z" fill="white"/>
</svg>
